<svg width="88" height="32" viewBox="0 0 88 32" fill="none" xmlns="http://www.w3.org/2000/svg">
<g id="Logo">
<path id="Vector" d="M9.11102 3.77711C6.97711 3.77711 5.73305 5.6432 5.73305 7.77711C5.73305 14.6661 18.711 12.7551 18.711 23.022C18.711 28.978 14.3119 32 9.95594 32C6.88899 32 5.42203 30.4898 4.31102 30.4898C4 30.4898 3.59914 30.6229 3.2 30.8458L2.13391 31.4229L0 21.9559L1.46695 21.5119C3.68899 27.3348 6.93391 29.9559 9.68985 29.9559C11.6907 29.9559 13.8229 28.622 13.8229 25.422C13.8229 17.5551 1.15594 19.9551 1.15594 10.222C1.15594 5.46695 4.62203 1.77797 8.53391 1.77797C11.2449 1.77797 12.4009 3.2 13.5568 3.2C13.9127 3.2 14.2687 3.06695 14.8009 2.75594L15.867 2.13391L17.5119 11.1119L16.178 11.4229C14.222 5.64492 11.2449 3.77883 9.11102 3.77883M36.7395 29.5343C35.4004 31.2449 34.0199 32 32.6393 32C30.9063 32 29.5724 30.8441 29.2181 28.7551C28.1953 30.6661 26.241 31.9102 24.2851 31.9102C21.8851 31.9102 20.1521 29.8661 20.1521 27.1101C20.1521 22.8873 23.3521 19.9551 29.13 18.1322V17.5551C29.13 13.9991 28.197 12.2212 26.3741 11.6441C26.108 14.3102 24.7741 16.3542 22.908 16.3542C21.7521 16.3542 20.819 15.5542 20.819 14.3102C20.819 12.2661 23.1741 10.4432 26.775 10.4432C31.397 10.4432 34.3741 12.6652 34.3741 17.2873V27.4644C34.3741 28.4423 34.6851 29.1093 35.2622 29.1093C35.5577 29.1093 35.7616 28.9849 36 28.7654L36.7395 29.5326V29.5343ZM29.1283 19.5559C26.1944 20.622 25.2164 23.333 25.2164 25.733C25.2164 27.867 26.1944 28.978 27.3054 28.978C28.0605 28.978 28.6825 28.5339 29.1283 27.6009V19.5559ZM45.9957 29.778H44.3508V0H44.1279L36.7948 2.4V3.46609C38.4397 3.91015 38.9287 4.75508 38.9287 6.31015V29.7762H37.3685V31.5542H45.9957V29.7762V29.778ZM62.1374 26.1339C60.7153 29.778 58.0493 32 54.9374 32C50.5382 32 47.3814 27.511 47.3814 21.778C47.3814 14.889 50.9806 10.4 55.4696 10.4C59.9585 10.4 62.1806 14.1339 62.1806 19.067L52.4475 20.667C52.8035 25.6 54.9806 28.2661 57.4704 28.2661C58.7594 28.2661 60.1365 27.5542 61.1594 25.6432L62.1374 26.1322M55.3382 18.6212C56.3611 18.4432 57.0713 18.1322 57.0713 16.3093C57.0713 14.4864 56.7153 11.9533 55.0272 11.9533C53.0713 11.9533 52.4043 15.7305 52.4043 19.1084L55.3382 18.6194V18.6212ZM63.7011 13.5983C65.168 13.9991 65.5672 14.7542 65.5672 16.0864V29.7745H63.7892V31.5525H73.4341V29.7745H70.9011V17.3754C71.257 15.9084 71.8791 14.7093 72.4562 13.8644C73.0333 15.0203 74.1564 15.8652 75.4678 15.8652C77.0229 15.8652 78.1529 14.6765 78.1529 13.2009C78.1529 11.594 77.0333 10.4432 75.2553 10.4432C73.0333 10.4432 71.5214 12.7102 70.8994 14.8873C70.8112 13.2873 70.6333 11.5542 70.1892 10.4432H70.0112L63.6994 12.4873V13.5983H63.7011ZM80.1901 4.56674C80.1901 2.83369 81.6121 1.32181 83.3451 1.32181C85.0782 1.32181 86.5002 2.78877 86.5002 4.56674C86.5002 6.34471 85.1231 7.81166 83.3451 7.81166C81.5672 7.81166 80.1901 6.34471 80.1901 4.56674ZM78.9978 12.4492L85.7002 10.4432H86.0112V29.7762H87.6994V31.5542H78.8544V29.7762H80.5875V16.2661C80.5875 14.9322 80.3145 13.9957 78.9961 13.6V12.451L78.9978 12.4492Z" fill="#001EB4"/>
</g>
</svg>
