<svg xmlns="http://www.w3.org/2000/svg" xmlns:xlink="http://www.w3.org/1999/xlink" width="169.25" height="64.427" viewBox="0 0 169.25 64.427">
  <defs>
    <clipPath id="clip-path">
      <rect id="Rectangle_3364" data-name="Rectangle 3364" width="169.25" height="64.427" fill="none"/>
    </clipPath>
  </defs>
  <g id="Group_7001" data-name="Group 7001" clip-path="url(#clip-path)">
    <path id="Path_5069" data-name="Path 5069" d="M145.285,67.686a6.308,6.308,0,1,1-5.03-11.569l-.567-1.345a7.8,7.8,0,0,0-4.758,7.163,7.62,7.62,0,0,0,7.761,7.736,7.7,7.7,0,0,0,3.181-.683Z" transform="translate(-12.917 -5.243)" fill="#ef8200"/>
    <rect id="Rectangle_3363" data-name="Rectangle 3363" width="7.955" height="1.396" transform="translate(145.455 51.654) rotate(-49.971)" fill="#ef8200"/>
    <path id="Path_5070" data-name="Path 5070" d="M166.659,59.222V62.8a2.782,2.782,0,1,1-5.564.01v-3.59h1.412v3.627a1.36,1.36,0,1,0,2.713,0V59.222Z" transform="translate(-15.421 -5.669)" fill="#fff"/>
    <path id="Path_5071" data-name="Path 5071" d="M169.521,63.177l.868-2.429.86,2.429Zm2.563,2.356h1.55l-2.407-6.311h-1.64l-2.406,6.311h1.5l.444-1.244h2.519Z" transform="translate(-16.004 -5.669)" fill="#fff"/>
    <path id="Path_5072" data-name="Path 5072" d="M182.37,63.177l.868-2.429.86,2.429Zm2.563,2.356h1.551l-2.408-6.311h-1.64l-2.406,6.311h1.5l.444-1.244h2.521Z" transform="translate(-17.234 -5.669)" fill="#fff"/>
    <path id="Path_5073" data-name="Path 5073" d="M145.487,61.682H143.02v1.264h1.11v1.079a1.577,1.577,0,0,1-.915.25,1.79,1.79,0,0,1-1.806-1.883,1.936,1.936,0,0,1,1.951-1.99,3.871,3.871,0,0,1,2.115.653V59.616a4.941,4.941,0,0,0-2.168-.519,3.214,3.214,0,0,0-3.343,3.267,3.091,3.091,0,0,0,3.254,3.229,3.781,3.781,0,0,0,2.27-.759Z" transform="translate(-13.399 -5.657)" fill="#fff"/>
    <path id="Path_5074" data-name="Path 5074" d="M151.275,60.975a4.7,4.7,0,0,0-2-.629c-.565,0-1,.147-1,.508,0,.968,3.292.567,3.292,2.859,0,1.213-1.018,1.891-2.425,1.891a4.289,4.289,0,0,1-2.278-.611V63.511a3.816,3.816,0,0,0,2.208.845c.55,0,.939-.184.939-.582,0-1-3.276-.587-3.276-2.861,0-1.092.944-1.789,2.407-1.789a5.176,5.176,0,0,1,2.139.49Z" transform="translate(-14.046 -5.66)" fill="#fff"/>
    <path id="Path_5075" data-name="Path 5075" d="M179.067,60.975a4.692,4.692,0,0,0-2-.629c-.564,0-1,.147-1,.508,0,.968,3.292.567,3.292,2.859,0,1.213-1.019,1.891-2.426,1.891a4.289,4.289,0,0,1-2.278-.611V63.511a3.818,3.818,0,0,0,2.207.845c.552,0,.94-.184.94-.582,0-1-3.276-.587-3.276-2.861,0-1.092.943-1.789,2.406-1.789a5.176,5.176,0,0,1,2.139.49Z" transform="translate(-16.707 -5.66)" fill="#fff"/>
    <path id="Path_5076" data-name="Path 5076" d="M160.327,59.222h-1.846l-1.792,2.2-1.8-2.2H153.07l2.914,3.511v2.774H157.4V62.716Z" transform="translate(-14.653 -5.669)" fill="#fff"/>
    <path id="Path_5077" data-name="Path 5077" d="M122.576,61.447c-1.12,0-1.244,1.21-1.244,1.96,0,1.227.768,1.554,1.262,1.554.847,0,1.244-.768,1.244-1.782,0-.591-.061-1.731-1.262-1.731M120.59,65.5V59.161h.777v2.3h.017a1.577,1.577,0,0,1,1.334-.715c1.226,0,1.923,1.006,1.923,2.3,0,1.1-.458,2.578-2.03,2.578a1.38,1.38,0,0,1-1.27-.706h-.018V65.5Z" transform="translate(-11.544 -5.663)" fill="#fff"/>
    <path id="Path_5078" data-name="Path 5078" d="M128.726,61.064h.856c-.539,1.509-1.068,3.019-1.659,4.529-.732,1.871-.812,1.978-1.81,1.978a1.156,1.156,0,0,1-.326-.071v-.706a1.347,1.347,0,0,0,.468.08c.406,0,.45-.115.82-1.068l-1.712-4.74h.883l1.227,3.761h.017Z" transform="translate(-12.001 -5.846)" fill="#fff"/>
    <path id="Path_5079" data-name="Path 5079" d="M33.808,19.271,42.426,0H5.746l8.748,19.1V33.977H33.808Z" transform="translate(-0.55 0.673)" fill="#fff"/>
    <path id="Path_5080" data-name="Path 5080" d="M103.77,11.317H96.511V26.511s.232,3.612-4.019,3.612-4.019-3.612-4.019-3.612V11.317H81.211V27.892s-.2,8.052,11.281,8.054,11.278-8.054,11.278-8.054Z" transform="translate(-7.774 -1.083)" fill="#fff"/>
    <path id="Path_5081" data-name="Path 5081" d="M66.1,17.883A15.536,15.536,0,0,0,65.02,20.9h-.232a15.26,15.26,0,0,0-1.08-3.013L60.28,11.316H52.123l9.151,15.911v8.092h7.259V27.227l9.152-15.911H69.527Z" transform="translate(-4.99 -1.083)" fill="#fff"/>
    <path id="Path_5082" data-name="Path 5082" d="M116.815,26.607l1.663-4.919a13.583,13.583,0,0,0,.592-2.267h.283a13.254,13.254,0,0,0,.592,2.267l1.664,4.919Zm-1.382-15.29-9.257,24h7.693l1.207-3.571h8.271l1.207,3.571h7.69l-9.257-24Z" transform="translate(-10.164 -1.083)" fill="#fff"/>
    <path id="Path_5083" data-name="Path 5083" d="M168.977,26.607l1.663-4.919a13.627,13.627,0,0,0,.593-2.267h.279a13.378,13.378,0,0,0,.6,2.267l1.664,4.919ZM167.6,11.317l-9.257,24h7.69l1.207-3.571h8.271l1.2,3.571h7.693l-9.257-24Z" transform="translate(-15.158 -1.083)" fill="#fff"/>
    <path id="Path_5084" data-name="Path 5084" d="M149.915,20.4c-3.461-.959-7.4-1.336-7.566-3.088,0-1.372,2.154-1.647,3.181-1.647a3.919,3.919,0,0,1,2.225.617,1.869,1.869,0,0,1,.916,1.636h7.079c-.363-5.719-4.974-7.672-10.187-7.672-5.033,0-10.018,1.837-10.018,7.853,0,5.248,4.576,6.246,8.443,7.346,4.213,1.2,5.661,1.546,5.661,2.811,0,1.816-2.272,2.231-3.5,2.231-1.4,0-3.175-.3-3.748-1.73a4.173,4.173,0,0,1-.282-1.567h-7.369c.069,7.592,7.569,8.721,10.752,8.721,5.443,0,11.3-2.2,11.3-8.442,0-4.4-3.427-6.106-6.882-7.069" transform="translate(-12.899 -0.981)" fill="#fff"/>
    <path id="Path_5085" data-name="Path 5085" d="M13.255,21.289V34.722h2.392V21.3a4.628,4.628,0,0,0-.34-1.626L8.028.744H0S11.843,18.222,12.673,19.527a3.283,3.283,0,0,1,.581,1.762" transform="translate(0 -0.071)" fill="#e50019"/>
    <path id="Path_5086" data-name="Path 5086" d="M18.915,21.375V34.722h.939v-13.8a9.977,9.977,0,0,0-.185-1.612L16.763.744H9.181l9.413,19a3.9,3.9,0,0,1,.321,1.627" transform="translate(-0.879 -0.071)" fill="#e50019"/>
    <path id="Path_5087" data-name="Path 5087" d="M23.046,20.906V34.722h.936V20.906c0-.712.055-1.409.055-1.409L25.023.744H17.869L22.9,19.792a6.345,6.345,0,0,1,.141,1.113" transform="translate(-1.711 -0.071)" fill="#e50019"/>
    <path id="Path_5088" data-name="Path 5088" d="M34.554,21.3V34.722h2.395V21.289a3.261,3.261,0,0,1,.579-1.762C38.357,18.222,50.2.744,50.2.744H42.175L34.9,19.673a4.589,4.589,0,0,0-.344,1.627" transform="translate(-3.308 -0.071)" fill="#e50019"/>
    <path id="Path_5089" data-name="Path 5089" d="M30.88,20.918v13.8h.936V21.375a3.867,3.867,0,0,1,.318-1.626l9.414-19H33.964l-2.9,18.561a10.118,10.118,0,0,0-.183,1.612" transform="translate(-2.956 -0.071)" fill="#e50019"/>
    <path id="Path_5090" data-name="Path 5090" d="M27.121,20.906V34.722h.936V20.906a6.345,6.345,0,0,1,.141-1.113L33.233.744H26.08L27.066,19.5s.055.7.055,1.409" transform="translate(-2.497 -0.071)" fill="#e50019"/>
  </g>
</svg>
